
<global>
amp_veltrack=0
ampeg_attack=0.002
ampeg_release=0.35
</global>

<group>
group_label=PP
lpc_hicc1=42
lpc_locc1=0

<region>
end=327417
hikey=A4
hivel=127
lokey=G#4
loop_end=273875
loop_mode=loop_continuous
loop_start=71256
loop_xfade=38590
lovel=0
lpc=CRgcQdIRu8GAkb5BzrOGwWWsXUEiykfBovYeQbfX+sBkB9hARADmwDxCBEEVodHAuHAhQEZcS713GMo+UGiav6vyjz1NESJAzcM0wGTs/T9JzhPA9cM+QNm3H8AZjGk/
lpc_rms=-48.12
offset=5359
pitch_keycenter=G#4
sample=Solocello_trill_dim5th_PP_G#4.opus
</region>

<region>
end=355603
hikey=A3
hivel=127
lokey=G#3
loop_end=278929
loop_mode=loop_continuous
loop_start=89744
loop_xfade=41912
lovel=0
lpc=/gqSQQFoLsJTJxNCZMxdwe5p3UBQGdjAALo9QOOLEsCcbWtAwilZwPiuG0AO2Uy/sKpjvyOL5D+eJwTAoV6ZP1tZaD6yAUG99OAvPxXW9L/v3qw//wGUvz7QBUCcMLi/
lpc_rms=-47.65
offset=22106
pitch_keycenter=G#3
sample=Solocello_trill_dim5th_PP_G#3.opus
</region>

<region>
end=350970
hikey=A2
hivel=127
lokey=G#2
loop_end=271113
loop_mode=loop_continuous
loop_start=90308
loop_xfade=41366
lovel=0
lpc=aDT6QU+FmMI0JGpC+Zd4wVhAjEEAecvB8r1LQdwcE8HlzlNBgwEuwfqlpkCchJs+1yjPwPqNJ0EJRY3A3D4Hv+e9k8A11sBAAUIRvkM4JsDT6c4/LzEFPzZzL8AhK80/
lpc_rms=-44.87
offset=7695
pitch_keycenter=G#2
sample=Solocello_trill_dim5th_PP_G#2.opus
</region>

<region>
end=373723
hikey=C6
hivel=127
lokey=F#5
loop_end=284339
loop_mode=loop_continuous
loop_start=82362
loop_xfade=44048
lovel=0
lpc=e1USQfl0pcE53plBkE8/wd5vGkGzABzB7jT4QLnXe8CuPQRA+oonwKujjkAeFI3Ak+nWP1omL72od6S+34IKQCtrZcAdS2BA79UQwGWkJj4PcCY/V1nqPmFcwb7AEjW+
lpc_rms=-51.09
offset=8774
pitch_keycenter=F#5
sample=Solocello_trill_dim5th_PP_F#5.opus
</region>

<region>
end=349801
hikey=G4
hivel=127
lokey=F#4
loop_end=284106
loop_mode=loop_continuous
loop_start=82818
loop_xfade=41228
lovel=0
lpc=IlxLQWx5+MGMGvpBxBaowWd2fEGrNUfBYR0PQa8R8MA61vpA0GMCwdzNBEELROPAl2cgQIfuDkBQYMS/ErCFv9qNiD9Dyz4+qbiJPpaSjb+n3vw+ukg7PoBqEb9MkvQ+
lpc_rms=-48.04
offset=12241
pitch_keycenter=F#4
sample=Solocello_trill_dim5th_PP_F#4.opus
</region>

<region>
end=362531
hikey=G3
hivel=127
lokey=F#3
loop_end=272730
loop_mode=loop_continuous
loop_start=75974
loop_xfade=42729
lovel=0
lpc=FDduQW5SE8LD0QhCub+PwQxrSkHnPSfBOHK0QN96hsDpcoJA6YdkwL0GnUCz45vAVSTPvoCRs0DAW4jAN82KP3HH27+csR5AlkhgPkeU/7/NjI0/hKNOv2Ehgj9mxOm+
lpc_rms=-49.49
pitch_keycenter=F#3
sample=Solocello_trill_dim5th_PP_F#3.opus
</region>

<region>
end=371018
hikey=G2
hivel=127
lokey=F#2
loop_end=281789
loop_mode=loop_continuous
loop_start=83347
loop_xfade=43729
lovel=0
lpc=fuMHQh3Gn8K4yWtCK2uJwZ8in0G/9MHBjy9ZQfuFTMEanlNBNO8qwc7wHUHqV7nAv020wALMaEFKscbAD9slwMJmLsDCgrVA0R8YPpyKbMDIgO0/tci8PNedA78jQbw+
lpc_rms=-42.99
offset=8794
pitch_keycenter=F#2
sample=Solocello_trill_dim5th_PP_F#2.opus
</region>

<region>
end=352242
hikey=F5
hivel=127
lokey=E5
loop_end=265150
loop_mode=loop_continuous
loop_start=81465
loop_xfade=41516
lovel=0
lpc=+QCJQSlfH8LDahVCqheqwb4XaEHcVD3B12ECQayRxMC+u59AmLy6wPWU8kA896jANL+pP1YcREAk167A1v5tQFZOg7+thts+D8YXP0oQ5b4woDo+1fZHPjtxN7+SjOE+
lpc_rms=-46.50
pitch_keycenter=E5
sample=Solocello_trill_dim5th_PP_E5.opus
</region>

<region>
end=363380
hikey=F4
hivel=127
lokey=E4
loop_end=273566
loop_mode=loop_continuous
loop_start=79386
loop_xfade=42829
lovel=0
lpc=GZKJQWxxLsK/2zRCrXXswUGto0FTjIXBZg9HQVIIHMHlnftAYTrtwHjqFkGb7RfBNshsQFREMUBN0jPAmvdTvdqyMj7FE/8//Yacv1avar6O1O88B+KgvgcjrL6MTSI/
lpc_rms=-47.73
pitch_keycenter=E4
sample=Solocello_trill_dim5th_PP_E4.opus
</region>

<region>
end=348384
hikey=F3
hivel=127
lokey=E3
loop_end=291414
loop_mode=loop_continuous
loop_start=89643
loop_xfade=41061
lovel=0
lpc=gxDPQSoGgcI8P2FCD1O9wawvjUF3j5XB/TgcQeBrz8DkngNBTqITwY+46ECvTJC/ujZnwIQGpUAijYbAWe5nPoTKmz/k354/IzoGv1Alv79vJlA+ia4vPy6TxL3kazk9
lpc_rms=-41.67
offset=13856
pitch_keycenter=E3
sample=Solocello_trill_dim5th_PP_E3.opus
</region>

<region>
end=355097
hikey=F2
hivel=127
lokey=E2
loop_end=256544
loop_mode=loop_continuous
loop_start=73417
loop_xfade=41852
lovel=0
lpc=AXYdQj0Js8IOv3JCE1Njwd/PpEF+T8jBKahkQeh9eMENn2hBV4AiwaeF4EC00pG/yTWvwAnaNkHR7avAtgdKwPubkb/2uGNAkEy+P3qhGsAUK6Q+KGsFP1IbDcAmNNw/
lpc_rms=-42.30
pitch_keycenter=E2
sample=Solocello_trill_dim5th_PP_E2.opus
</region>

<region>
end=362814
hikey=D#5
hivel=127
lokey=D5
loop_end=281823
loop_mode=loop_continuous
loop_start=84721
loop_xfade=42762
lovel=0
lpc=GxMXQUYarMGvialBQJB0wUqhSUEJ/SfBoi4LQfMA88ADVM5Ay4i6wNcF00C24rrALrxZQGAp2b8VBiq+4yopP00auD+d19C/zi4LPu2mlj+ncpO/3iAJP5UcOr6IfbS9
lpc_rms=-50.31
pitch_keycenter=D5
sample=Solocello_trill_dim5th_PP_D5.opus
</region>

<region>
end=365804
hikey=D#4
hivel=127
lokey=D4
loop_end=281530
loop_mode=loop_continuous
loop_start=82559
loop_xfade=43114
lovel=0
lpc=bfZvQVSnHMJtwCZCjPTewZByoUEcmILBh+AuQRhDAsExEQZBbdIKwRgCCkFfE9/Al7IvPzXwq0CRV4vAVj2wP+lJ8b9mhUJAntu9vqOrTMAzLlFABAnTvw46TT6M9XY+
lpc_rms=-47.53
offset=13895
pitch_keycenter=D4
sample=Solocello_trill_dim5th_PP_D4.opus
</region>

<region>
end=373921
hikey=D#3
hivel=127
lokey=D3
loop_end=285984
loop_mode=loop_continuous
loop_start=96214
loop_xfade=44071
lovel=0
lpc=QwLMQZZEisL/EIhCiDz1wV16iEGuIaLBTuVXQfc43MDlVAFBFnE0weodIkGgvui/0zMFwUzyI0H9DDbAJjElv6ZcX8BUFctAGusiwC/NWsBt/GNAzOrAv7EwkT9HZPy+
lpc_rms=-44.81
offset=16129
pitch_keycenter=D3
sample=Solocello_trill_dim5th_PP_D3.opus
</region>

<region>
end=362411
hikey=D#2
hivel=127
lokey=D2
loop_end=251978
loop_mode=loop_continuous
loop_start=87829
loop_xfade=42715
lovel=0
lpc=j03RQVFyY8KL+wJCa3Zxv1as+kCSOjnB1FitQBUODME2BAFBl8G5v+rt8L4UrSk/5eeowE6ZB0FqRru/bcVpwM9Uib87gdlAXPXYwP6kOEA8fAbA/gk8QJ2Ky79YJ3c+
lpc_rms=-43.45
pitch_keycenter=D2
sample=Solocello_trill_dim5th_PP_D2.opus
</region>

<region>
end=359961
hikey=C#5
hivel=127
lokey=C5
loop_end=274588
loop_mode=loop_continuous
loop_start=78995
loop_xfade=42426
lovel=0
lpc=sypOQaeL+cExmvRBJHmXwVp1X0FvRk3Bk8ApQRh0BMFu2upAt7HdwNvA5EC3ZqzAlLuSP7HrvT8+4hnAVS7mPxnCWL8cPydAcTaBwPprgEDb0jXA+l7mP3gpyr9vomc/
lpc_rms=-49.32
pitch_keycenter=C5
sample=Solocello_trill_dim5th_PP_C5.opus
</region>

<region>
end=353456
hikey=C#4
hivel=127
lokey=C4
loop_end=275797
loop_mode=loop_continuous
loop_start=70610
loop_xfade=41659
lovel=0
lpc=/I1gQW5LC8LcDwxCiiC+waJamUHgsYHBP+c8QW/iD8HrivtA7nIHwaf4EEEvssjATYQgvRLbyUAH0eDAQTODQNLkc8DWxIZAmAXdv3pqgT57bUy/rqNMP6NdAL8mT0A+
lpc_rms=-46.47
sample=Solocello_trill_dim5th_PP_C4.opus
</region>

<region>
end=374039
hikey=C#3
hivel=127
lokey=C3
loop_end=298845
loop_mode=loop_continuous
loop_start=87943
loop_xfade=44085
lovel=0
lpc=NLTLQUYyg8KQCmFCei12wfd+50CdWXrBlCIJQQf4AsBkNaVAqzfZwD3KlUD/Zbu+3QLnwBlbMUF8BqnAy27CPnyi2b98eOo/iyOKP1oxhsCpm6JAAqG8v+VdGsDyis0/
lpc_rms=-44.49
offset=15134
pitch_keycenter=C3
sample=Solocello_trill_dim5th_PP_C3.opus
</region>

<region>
end=356636
hikey=C#2
hivel=127
lokey=C2
loop_end=249529
loop_mode=loop_continuous
loop_start=80573
loop_xfade=42034
lovel=0
lpc=Se83QmWt2MKj25tC0Z2swffT6UGw3QTC4NxfQayOfsFM/q9BqqWNwXrna0EyWg/B8OUTwXnQpkHoeGLA136fwKEkJMH+7RJBUHdXQHIbcsCR3kM/ScN1P//wh8CO5j5A
lpc_rms=-41.60
pitch_keycenter=C2
sample=Solocello_trill_dim5th_PP_C2.opus
</region>

<region>
end=374194
hikey=B4
hivel=127
lokey=A#4
loop_end=293610
loop_mode=loop_continuous
loop_start=96284
loop_xfade=44103
lovel=0
lpc=FHsJQQQOmsFUX5FBaLkvwUVS7ECdCbLAST8sQFOAMr+K0rs+qmg8v3/9kT85zq4+iADivwXsGkB0ayTA6j2bP9P/gT7V6Zq+91PVOykNMz4JbgU/ikLwv/AVKUAr3ZC/
lpc_rms=-53.46
offset=11296
pitch_keycenter=A#4
sample=Solocello_trill_dim5th_PP_A#4.opus
</region>

<region>
end=356401
hikey=B3
hivel=127
lokey=A#3
loop_end=273794
loop_mode=loop_continuous
loop_start=77543
loop_xfade=42006
lovel=0
lpc=KpmKQc+2L8Ld3y5CbTHFwTmzXkE+OSnB1PDqQJYlvsB3Xr1A6xLZwI/n0EBr5zzAMPC4vyGYkkDIzJHAEgUGQGVE2L7bpny+ZJ11QHRl1cCWE3VATn0vvxbozj5s5sy+
lpc_rms=-46.15
pitch_keycenter=A#3
sample=Solocello_trill_dim5th_PP_A#3.opus
</region>

<region>
end=357110
hikey=B2
hivel=127
lokey=A#2
loop_end=276837
loop_mode=loop_continuous
loop_start=79195
loop_xfade=42090
lovel=0
lpc=9vgBQrmzrsL/6apCw9kmwt9Y10H/O9PBNTZNQT9mssD76hlBa3xHwatGS0F/Ee/AkqGzwF+fSkG1vJfAEtPCv8S9FMCYtbNADNU9wAWN0L+A6hJAYLHdPw1XnMCs5ixA
lpc_rms=-43.77
pitch_keycenter=A#2
sample=Solocello_trill_dim5th_PP_A#2.opus
</region>
</group>

<group>
group_label=MF
lpc_hicc1=84
lpc_locc1=43

<region>
end=332417
hikey=A4
hivel=127
lokey=G#4
loop_end=272238
loop_mode=loop_continuous
loop_start=71020
loop_xfade=39179
lovel=0
lpc=otQAQWeomMGFfaNBfaiBwR4sYkHLRELBj6v8QNPmWcBiwEo/amMIParapT5Hjqe+8r8AwAEpc0Ai69u/Su6lvuNOoL/VVkhAJ5bSvxMDJL7auCs/fQbfvirudropYT0+
lpc_rms=-33.01
pitch_keycenter=G#4
sample=Solocello_trill_dim5th_MF_G#4.opus
</region>

<region>
end=295505
hikey=A3
hivel=127
lokey=G#3
loop_end=247182
loop_mode=loop_continuous
loop_start=76036
loop_xfade=34829
lovel=0
lpc=S3KVQWZjM8JtlyVC4ubIwRpopkGYdYbBCv39QOS/jcBq0dJAUw8FwUvM7kDNnVPA+OZuwNAjAEF5a7HAe3fXPs9voD9j5hG+LmUXQFEShMCiHVRAAeaKwM38ZECHoE+/
lpc_rms=-30.62
pitch_keycenter=G#3
sample=Solocello_trill_dim5th_MF_G#3.opus
</region>

<region>
end=311027
hikey=A2
hivel=127
lokey=G#2
loop_end=260166
loop_mode=loop_continuous
loop_start=80030
loop_xfade=36658
lovel=0
lpc=4ZQFQnqxn8IEyH5CppnIwStSwUF5E87BqQBGQXjjvsDj0btA8ED8wLJSL0FzWPXAZYWqv8y/vkBaTRa/kEpywP1iCMCSBu9AdMe/v3knmMDTIpRAByOCwAPTBkBfVke9
lpc_rms=-28.99
pitch_keycenter=G#2
sample=Solocello_trill_dim5th_MF_G#2.opus
</region>

<region>
end=292575
hikey=C6
hivel=127
lokey=F#5
loop_end=244731
loop_mode=loop_continuous
loop_start=75282
loop_xfade=34484
lovel=0
lpc=TwpfQfjM18G2YLlBKEiFwSn0fkFpAC3BM2TaQMQIgMByDSg/FyioP5pyHEAsC5bAO6vxPyJksj8vvBJAOoZswASC5D48kh0/xSPcP76flT/vVgTAVuKHPy6JIsD3zVRA
lpc_rms=-29.31
pitch_keycenter=F#5
sample=Solocello_trill_dim5th_MF_F#5.opus
</region>

<region>
end=348350
hikey=G4
hivel=127
lokey=F#4
loop_end=274162
loop_mode=loop_continuous
loop_start=67674
loop_xfade=41057
lovel=0
lpc=REkjQZGfscEubqhBdz1nwVJrOEEYFw7BmyioQCnOP8Db4FU/u2MiPcwNeD/bmai/bdtlv4+mCkAq2ua/ZO/RP7aG779DYxlAdHkCwJBUWj95cyQ/D6oTv437Ab8UYVw/
lpc_rms=-33.17
pitch_keycenter=F#4
sample=Solocello_trill_dim5th_MF_F#4.opus
</region>

<region>
end=293952
hikey=G3
hivel=127
lokey=F#3
loop_end=245883
loop_mode=loop_continuous
loop_start=75637
loop_xfade=34646
lovel=0
lpc=OznSQbFsb8JECUBCChitwfDEnUFbu57BYDT9QFD29b+VAYs/Gc24P23HmL+g6dM/bdXtwGK6DkEaNe4+43HAwADPPT+VAyhA+8W+P8pYn8CYPrBARKNlwNdoLz6+eS4/
lpc_rms=-29.28
pitch_keycenter=F#3
sample=Solocello_trill_dim5th_MF_F#3.opus
</region>

<region>
end=303920
hikey=G2
hivel=127
lokey=F#2
loop_end=254221
loop_mode=loop_continuous
loop_start=78202
loop_xfade=35821
lovel=0
lpc=7bsjQkWfysK5Ea9CQIoRwv/RvUFTebnBvp9iQdTaOcE+xBFB2o7HwNVth0DUsQw/E+OkwOb8A0GCni/AB3P+wIMNp0A6LuJAnIHjwAmM8b52Mks/MkFsQLtolsC/Wug/
lpc_rms=-28.61
pitch_keycenter=F#2
sample=Solocello_trill_dim5th_MF_F#2.opus
</region>

<region>
end=344322
hikey=F5
hivel=127
lokey=E5
loop_end=272380
loop_mode=loop_continuous
loop_start=75761
loop_xfade=40582
lovel=0
lpc=5lkSQcFKjMGKtnNBylUkwX1hBUFTisjAU161QKyqt8DX2IZAWkdHwKfRM0Dh3di/EPQyvuQj0z+k7Ee/Q83Hvvz1iT+y2pu+mW3yvtHgoT8e1sk+lOCTv4KYPz8MI4q+
lpc_rms=-33.64
pitch_keycenter=E5
sample=Solocello_trill_dim5th_MF_E5.opus
</region>

<region>
end=333359
hikey=F4
hivel=127
lokey=E4
loop_end=263943
loop_mode=loop_continuous
loop_start=71761
loop_xfade=39290
lovel=0
lpc=9cAcQQpyscH/Bq9Bf3aHwRUHe0Gbv1HBhKD3QMY7ZMAh0QFAHs0JwBuK5D8GePE8vN5NwK71lkC85jnAeFynPxZXIMCzHFJAgW3ZvwzLIT82ohS/7am+PXWS2z3yma8+
lpc_rms=-33.27
pitch_keycenter=E4
sample=Solocello_trill_dim5th_MF_E4.opus
</region>

<region>
end=329986
hikey=F3
hivel=127
lokey=E3
loop_end=264419
loop_mode=loop_continuous
loop_start=72341
loop_xfade=38893
lovel=0
lpc=l2qfQY/BM8II3wtCEkNYwRoZMEGekUrBYUrqQHcjrMBmgdxAeM3owOD270CgqHDAe16cwPZm90ABH0g+bBzHwNjSekCJgJe+UEKAPwajJsChRfA/UbUqvmCSmb+UX1U/
lpc_rms=-31.23
pitch_keycenter=E3
sample=Solocello_trill_dim5th_MF_E3.opus
</region>

<region>
end=295990
hikey=F2
hivel=127
lokey=E2
loop_end=247588
loop_mode=loop_continuous
loop_start=76161
loop_xfade=34886
lovel=0
lpc=zN0NQhX2n8JNSF1CQFd0wbR3fEF3WVXBEZ2rQMTIC8HUvXxA5sUWP9MJwkCbktjAXT9LwAUj/UCsb6I+8ozRwMQYHkDysdk/BDncveW8Wb/44+0/wphZwE6e1z/fqRi9
lpc_rms=-28.21
pitch_keycenter=E2
sample=Solocello_trill_dim5th_MF_E2.opus
</region>

<region>
end=307768
hikey=D#5
hivel=127
lokey=D5
loop_end=257440
loop_mode=loop_continuous
loop_start=79192
loop_xfade=36274
lovel=0
lpc=n2jcQOXpaMEPaGpBnDRGwdRgM0GgCQvByfHHQDdvgsCvwRZAc+Pdv4k3CUDjGLa/ENBCv/jS0z8HLTG/gzmWPluBZ7/BKuU/Hy98v+zIiT4kad89ND5Lvt+WJT6VGJY9
lpc_rms=-33.50
pitch_keycenter=D5
sample=Solocello_trill_dim5th_MF_D5.opus
</region>

<region>
end=358133
hikey=D#4
hivel=127
lokey=D4
loop_end=278428
loop_mode=loop_continuous
loop_start=74364
loop_xfade=42210
lovel=0
lpc=D0gbQYpPtsG94K5BTVJdwY3pLEE0byDBgGfqQBWIg8Czd+0/GQrjv5/cLkBXf6y//eUTwEMDhkBEQkvAAzwDQJB4HMDeqFFAjzvVvwN1F78CElw/y9kjvs6uE7/gR/E+
lpc_rms=-34.04
pitch_keycenter=D4
sample=Solocello_trill_dim5th_MF_D4.opus
</region>

<region>
end=360633
hikey=D#3
hivel=127
lokey=D3
loop_end=279345
loop_mode=loop_continuous
loop_start=75654
loop_xfade=42505
lovel=0
lpc=8LfPQc/dgsJcb3JCF7MAwrsEzUEJ97bBIVs/QYg88sCQb7VAsHqYwGt/4UAJYFvAKgyTwDBPBUFoe6nAEC/NvmJGVD/4W1lAsMyKv5NVnsCsncVABpeYwO2HBEBCEtq9
lpc_rms=-29.88
pitch_keycenter=D3
sample=Solocello_trill_dim5th_MF_D3.opus
</region>

<region>
end=302519
hikey=D#2
hivel=127
lokey=D2
loop_end=253049
loop_mode=loop_continuous
loop_start=77841
loop_xfade=35655
lovel=0
lpc=Ezj6QZ9efsL3LvpBCw1lP5UkIkFr9T7BzKlwQOIypsBfKdM/JfRoPy/9RkB4WY49MP6jwEHqVUBuKwxASPSVwI0bTL9c2OVAYOaZwOdf9z8ojO+/PkWrP144NsDX5vw/
lpc_rms=-28.81
pitch_keycenter=D2
sample=Solocello_trill_dim5th_MF_D2.opus
</region>

<region>
end=302412
hikey=C#5
hivel=127
lokey=C5
loop_end=252959
loop_mode=loop_continuous
loop_start=77814
loop_xfade=35643
lovel=0
lpc=ci4LQf8ym8EER55BCICCwdg2ekGA61XBlUogQa6m7sCy+61AyeplwOodDUAmXTy+sgYcwANhX0DUeve/e7u/Pz5RIsBdVSVAAW7/vrYUZL+1Z+A/r08VwCGJ2j9Xz1e+
lpc_rms=-32.21
pitch_keycenter=C5
sample=Solocello_trill_dim5th_MF_C5.opus
</region>

<region>
end=340899
hikey=C#4
hivel=127
lokey=C4
loop_end=285153
loop_mode=loop_continuous
loop_start=87717
loop_xfade=40179
lovel=0
lpc=Jz4fQaSbtMFUTapBcM5YwS8GMkHRdSXBiXzRQBo9WcBdRfU/4xrDv2O/lj9SUPk+epEswK+9QUCi+SHAsKIXQJUo4L+qD6c/gRskvzoQWj4hUts+Pp1cv7hE/z5JSZ48
lpc_rms=-34.05
sample=Solocello_trill_dim5th_MF_C4.opus
</region>

<region>
end=302363
hikey=C#3
hivel=127
lokey=C3
loop_end=252918
loop_mode=loop_continuous
loop_start=77801
loop_xfade=35637
lovel=0
lpc=ZykPQhppr8ITgJ1C0s4iwolx7kHIjr/B16EuQWPDCcHH8PpAorWHwIEg5UAz11zA34dNwVZfmkFpIrbAWE6IwKhbcD7VBe4/GiJeQFz/3MCwX9BA9ttRwGbtm79nbb0/
lpc_rms=-28.02
pitch_keycenter=C3
sample=Solocello_trill_dim5th_MF_C3.opus
</region>

<region>
end=342407
hikey=C#2
hivel=127
lokey=C2
loop_end=273234
loop_mode=loop_continuous
loop_start=74001
loop_xfade=40357
lovel=0
lpc=iT9YQmhIB8Mb6+JCjlImwg779EG8WAHCUNRFQXhx9cBLKJdAWk3AQKgH/b8LTO4+iMBtwXjNpUHXmVPA50g+wdw8jECPQvdAO6a1wAOle8CFNS1B5vUjwd0mG0D1zJc/
lpc_rms=-26.87
pitch_keycenter=C2
sample=Solocello_trill_dim5th_MF_C2.opus
</region>

<region>
end=304487
hikey=B4
hivel=127
lokey=A#4
loop_end=254695
loop_mode=loop_continuous
loop_start=68392
loop_xfade=35887
lovel=0
lpc=gp4JQXE9l8HZgpRBpt1SwXvrKkEswRTBrtHcQOhzkcDdw11AORw8wOS+/D+6jDy/K7UAv6gXwT+QCOu/xBkXQPxs7b9+XKo/4j+1vkQU9b7eKwQ/Pt3MPU2Jhb5Zcgc+
lpc_rms=-35.32
pitch_keycenter=A#4
sample=Solocello_trill_dim5th_MF_A#4.opus
</region>

<region>
end=301769
hikey=B3
hivel=127
lokey=A#3
loop_end=252421
loop_mode=loop_continuous
loop_start=77648
loop_xfade=35567
lovel=0
lpc=yMF+QcF+FcJ//wBCxqVuwUr1MUF90UvBnL4QQTiW2sBJzd5ANmy4wDw/h0BA16++hpK6wFX6z0BSk8C/nBDPvvmDnb9umR9AgwC5vygtj747MbU/e4TRv3h92j4Fw2k+
lpc_rms=-32.74
pitch_keycenter=A#3
sample=Solocello_trill_dim5th_MF_A#3.opus
</region>

<region>
end=351924
hikey=B2
hivel=127
lokey=A#2
loop_end=268691
loop_mode=loop_continuous
loop_start=65383
loop_xfade=41478
lovel=0
lpc=e0cDQvZRo8KxWZBCagcHwsIp0EFVUdTBdr+NQRmFQ8Fa3whBEoTywAoOKkHTIhPBVgqdPxpcgUBShA8+u4yewF6QAL9FoORAkPMWwG8bU8AnY49AD9y/wOFShkCXel2/
lpc_rms=-30.79
pitch_keycenter=A#2
sample=Solocello_trill_dim5th_MF_A#2.opus
</region>
</group>

<group>
group_label=FF
lpc_hicc1=127
lpc_locc1=85

<region>
end=311407
hikey=A4
hivel=127
lokey=G#4
loop_end=260483
loop_mode=loop_continuous
loop_start=80128
loop_xfade=36703
lovel=0
lpc=o363QKU3OcEh1iZBN+4EwSoeBEEdk+DAUN6jQK8NY8BNaeE/tTuqv2aYJEBHXjHA6b5kP+WoGT7j3/8+JhKovn/ybL82Oc0/3rGGv7MiJj8gCg88w76UvhhM+b1cIYo+
lpc_rms=-25.90
pitch_keycenter=G#4
sample=Solocello_trill_dim5th_FF_G#4.opus
</region>

<region>
end=303792
hikey=A3
hivel=127
lokey=G#3
loop_end=254114
loop_mode=loop_continuous
loop_start=78169
loop_xfade=35805
lovel=0
lpc=oCxzQR59CcLPTuNBtohhwautNkFKfy/BYb/nQK99o8AguadAAdrMwJoE00CdJm3AAtqfv5B8jkBxJljAUNfVP6x+LMAdsGVA4lnSv1IafT5Ikq48VtOXvz4Fcz+FIIY9
lpc_rms=-25.28
pitch_keycenter=G#3
sample=Solocello_trill_dim5th_FF_G#3.opus
</region>

<region>
end=310736
hikey=A2
hivel=127
lokey=G#2
loop_end=259922
loop_mode=loop_continuous
loop_start=79955
loop_xfade=36624
lovel=0
lpc=i7C+QU4NaMLmOUdCH4q4wVlYlUF2eoXBWw4FQTrQ3sDLZ9pAZz3qwNcYNkH9SQXB0ytkwLdzMkF798/AP+RkP5pMe8AVStRANbPkv0U7778QMMY+wBasvpM6kj90k/q+
lpc_rms=-23.38
pitch_keycenter=G#2
sample=Solocello_trill_dim5th_FF_G#2.opus
</region>

<region>
end=311432
hikey=C6
hivel=127
lokey=F#5
loop_end=260504
loop_mode=loop_continuous
loop_start=80135
loop_xfade=36706
lovel=0
lpc=nuHFQCueNMGd4BZBkUvDwHZivEBka2bAVL7jPm9uTT/ME9y+BNOtPx+4Wr/VIVQ9QvMAv/nYlj/T7GA+bvDhvmc7kz0ovbg+FvX7PsiJIr6akuO+jUjDP5LkDcBUKOc/
lpc_rms=-28.09
pitch_keycenter=F#5
sample=Solocello_trill_dim5th_FF_F#5.opus
</region>

<region>
end=309057
hikey=G4
hivel=127
lokey=F#4
loop_end=258518
loop_mode=loop_continuous
loop_start=79523
loop_xfade=36426
lovel=0
lpc=EW8OQVPxkcGsWH5B3kAmwfZHFEFniQjBTJ+2QGzOQMBbXxc/B2iiPA715D42NKO+G8qev21t+z9bIoC/2O/BPkSZF79AibI/ac99v3pDdT4Cwsc+/Accv0F9pj4zDz8+
lpc_rms=-24.33
pitch_keycenter=F#4
sample=Solocello_trill_dim5th_FF_F#4.opus
</region>

<region>
end=316282
hikey=G3
hivel=127
lokey=F#3
loop_end=264561
loop_mode=loop_continuous
loop_start=81383
loop_xfade=37277
lovel=0
lpc=4c+GQRZ6FcJFYeNBYwwYwcm1zUCHLA3BnAawQCx0bMC4KKVASFGkwJZIWEBPGoK/4+ImwM8hrEDqmj7AnVouP5nEnL+zhx89nNoWQKvaE8Dwh+E/PDXPvuQhAMCZubU/
lpc_rms=-25.71
pitch_keycenter=F#3
sample=Solocello_trill_dim5th_FF_F#3.opus
</region>

<region>
end=312492
hikey=G2
hivel=127
lokey=F#2
loop_end=261391
loop_mode=loop_continuous
loop_start=80407
loop_xfade=36831
lovel=0
lpc=4pD4QXSam8JbsolCTJXXwZyZS0GvhFrB6bPzQIX9C8DXgB++3Jiwv6Shr0CQQbPA+e0IP7gkf0CLY6e/IweKwANAN0Bd2zJAaIDWvhRkzcBx0c9AQAXsvyz8mr5VWOk9
lpc_rms=-23.45
pitch_keycenter=F#2
sample=Solocello_trill_dim5th_FF_F#2.opus
</region>

<region>
end=295640
hikey=F5
hivel=127
lokey=E5
loop_end=247295
loop_mode=loop_continuous
loop_start=76071
loop_xfade=34845
lovel=0
lpc=XqfFQCkXLsHqnOpAr7ZSwCPzWEDKHDnAFUoSQCXyGMBGxL8/tC5MPn1kFT62oqK/kSCnPr5HLT/qhQg/Qtplv1lPjD8mEHq/VkyXvdPhbj/ZXTM/6Wppv98xrr56Iho/
lpc_rms=-25.29
pitch_keycenter=E5
sample=Solocello_trill_dim5th_FF_E5.opus
</region>

<region>
end=304378
hikey=F4
hivel=127
lokey=E4
loop_end=254604
loop_mode=loop_continuous
loop_start=78319
loop_xfade=35875
lovel=0
lpc=vsg7QRE/xcGVSqZBrKJQwQugO0EjSDvB6gYCQbf8h8C3Yv4/gWqTv8WIqD+UF02/n7g5vzGW7z9/oL2/JKhhPywgiL+vH58/wiKWvvRW57xr9Iy9lwACPXMHeL5cDIk+
lpc_rms=-20.62
pitch_keycenter=E4
sample=Solocello_trill_dim5th_FF_E4.opus
</region>

<region>
end=304380
hikey=F3
hivel=127
lokey=E3
loop_end=254606
loop_mode=loop_continuous
loop_start=78320
loop_xfade=35875
lovel=0
lpc=CVGpQfTePsJuTRJC7YxFwbSgEkGfLUfBEUMHQeKSzMBo7wFBKrgCwSqBmkBd9AS/susfwL1kSkDvOCa/Nq6yv0PoqD/fomG/U9EGQMXIG8CQIl4/RTIlPvDRfr9psVw/
lpc_rms=-23.25
pitch_keycenter=E3
sample=Solocello_trill_dim5th_FF_E3.opus
</region>

<region>
end=296043
hikey=F2
hivel=127
lokey=E2
loop_end=247632
loop_mode=loop_continuous
loop_start=76175
loop_xfade=34892
lovel=0
lpc=zYjqQb3gg8I1dDdCZsVEwYuQb0HtTYTBt7WMQCDNzL8BMdo/qmYVPdTMaUA5ybDAaCFiwCoXHkGC0xa/06iYwDVfT8AfZc1ApUBQv94M879gFuw/XI7FvzPRCb91kng/
lpc_rms=-21.11
pitch_keycenter=E2
sample=Solocello_trill_dim5th_FF_E2.opus
</region>

<region>
end=313161
hikey=D#5
hivel=127
lokey=D5
loop_end=261951
loop_mode=loop_continuous
loop_start=80579
loop_xfade=36910
lovel=0
lpc=e8+oQMrXD8GHCOBAX6WkwCEGlEB43j/AlfANQAHLAsDr6iA/mSmAPurKMD9vJWG/QqkXvdR8TD8DJoq/BKyaP1/8uL4v+5Q9tjHRvTxXlL2oWV4/NUwmv0JPkT6AlIk9
lpc_rms=-26.20
pitch_keycenter=D5
sample=Solocello_trill_dim5th_FF_D5.opus
</region>

<region>
end=312383
hikey=D#4
hivel=127
lokey=D4
loop_end=261300
loop_mode=loop_continuous
loop_start=80379
loop_xfade=36818
lovel=0
lpc=FE9cQUvO+8GIAOFBO493wf4uO0HTijLBuwzpQAJGk8AW7VlAZO1awPORe0A1iRfAsaixvxJIXkDtHwzAS8U1Pv0vkD6kA1U/j0hFP0IfVsBIYiJAQ+4jPj7qk79IuQc/
lpc_rms=-26.48
pitch_keycenter=D4
sample=Solocello_trill_dim5th_FF_D4.opus
</region>

<region>
end=298547
hikey=D#3
hivel=127
lokey=D3
loop_end=249726
loop_mode=loop_continuous
loop_start=76819
loop_xfade=35187
lovel=0
lpc=AOyvQYF6VMITEDVC1xKuwcLgoEHeWp/B8rpIQdNtG8Fxt+NAaqzXwNCDAUHQpSHASLa8wLOtHEEGIcrAIHiUP8HBRcBsis5AeXEKwO0MFMAdYa4/4j7Wv9zcQUDE9ba/
lpc_rms=-25.61
pitch_keycenter=D3
sample=Solocello_trill_dim5th_FF_D3.opus
</region>

<region>
end=288251
hikey=D#2
hivel=127
lokey=D2
loop_end=241114
loop_mode=loop_continuous
loop_start=74170
loop_xfade=33974
lovel=0
lpc=pwgFQmwEk8IL8khCxchUwYulWkFp3VbBDd8fQNRzx71794LAfrYXQdDjmsC7pVBAxBQ0wQApKkGB3S9AOk75wNsTKb7bDo5AP+CmPeSeRcDf+ZdAQmXqwP+erUAMZre/
lpc_rms=-21.76
pitch_keycenter=D2
sample=Solocello_trill_dim5th_FF_D2.opus
</region>

<region>
end=303042
hikey=C#5
hivel=127
lokey=C5
loop_end=253486
loop_mode=loop_continuous
loop_start=77976
loop_xfade=35717
lovel=0
lpc=z0DKQK7hQsGF6yxBV+kMwTMsB0GYxdXA4KGbQEnyYcDF0QBArcmSvyx80j//rcq/ZMPvu0w/sD9/RqS+8st0PaYLjL+Qn50/D40Sv/1hXz8guqC+3cEvv+ZKJT+iPpy8
lpc_rms=-25.23
pitch_keycenter=C5
sample=Solocello_trill_dim5th_FF_C5.opus
</region>

<region>
end=305277
hikey=C#4
hivel=127
lokey=C4
loop_end=255356
loop_mode=loop_continuous
loop_start=78551
loop_xfade=35980
lovel=0
lpc=JTr0QP52hcHepXFBioMTwR9+9UC5iunAXRSVQNvsLMD81cs/X36Ev0uUsT8cFJ2/ZPIQv5q3DUDEKgLAFSGKP8R7Mb8/42Q/ey8uvw6VGD8lnHW+nj21vh/8uD287Iw+
lpc_rms=-28.84
sample=Solocello_trill_dim5th_FF_C4.opus
</region>

<region>
end=308814
hikey=C#3
hivel=127
lokey=C3
loop_end=258314
loop_mode=loop_continuous
loop_start=79461
loop_xfade=36397
lovel=0
lpc=6HahQRGFP8LA1iVCLiGZwTG9SUGuLSzB1lORQHGNLMC1DTBAYBY1wF02lUCgNYDAtUKmv0txjUBTw2290YZAwN9bFT+DyNc/9LGTview47+d2iNAzI9awGpXH0BJJQG/
lpc_rms=-25.18
pitch_keycenter=C3
sample=Solocello_trill_dim5th_FF_C3.opus
</region>

<region>
end=311245
hikey=C#2
hivel=127
lokey=C2
loop_end=260348
loop_mode=loop_continuous
loop_start=80086
loop_xfade=36684
lovel=0
lpc=7fM1Qlf53MIi9K1CwwTFwRnsb0GO9YzB+jmwQB60z8Bb1cJAoLylP20ygkCvkpvAwL05wTVct0F4CjvBQG5Dv/svdsCr6BVBRwptwLBd879HhU5ApoNzwN+jZj5aoro/
lpc_rms=-20.80
pitch_keycenter=C2
sample=Solocello_trill_dim5th_FF_C2.opus
</region>

<region>
end=290150
hikey=B4
hivel=127
lokey=A#4
loop_end=242702
loop_mode=loop_continuous
loop_start=74658
loop_xfade=34198
lovel=0
lpc=Xz6yQDZNKcEy7gxBRBqzwIxypEBD/53AWyRYQNUCoL/hpbA91itZv3KUtj+OCg6/1BNyv5ptjD/lW7s+2ghIvwGRkzzEHSw/27RIPrkqGb8xUVE+g0s0P1x1Cb954Se9
lpc_rms=-26.74
pitch_keycenter=A#4
sample=Solocello_trill_dim5th_FF_A#4.opus
</region>

<region>
end=295342
hikey=B3
hivel=127
lokey=A#3
loop_end=247045
loop_mode=loop_continuous
loop_start=75994
loop_xfade=34810
lovel=0
lpc=aE1QQW6078EpLdJBOhZowZk0QUFdfTPB1/XdQB+FoMCETrBApGzHwKbWukBfXUHAf2zYv2lKsUAEXbXAiU+AQDokXsCsEmhAKkzVvwlj8D0PXvW9FXuWv1Sy2T/Z9gS/
lpc_rms=-27.40
pitch_keycenter=A#3
sample=Solocello_trill_dim5th_FF_A#3.opus
</region>

<region>
end=307549
hikey=B2
hivel=127
lokey=A#2
loop_end=257256
loop_mode=loop_continuous
loop_start=79135
loop_xfade=36248
lovel=0
lpc=g1QAQq4qnsL5lIpCW939wZprrUFT2I3B0TQEQbgJBcHLbQJB6qvSwBDbPUEvLCnBAJ4YwMnPE0GAZ76/3uFqwCrAX78SbFtA03moPivyYMAF4Z5ADWaXwFC4pz/3QsQ+
lpc_rms=-21.14
pitch_keycenter=A#2
sample=Solocello_trill_dim5th_FF_A#2.opus
</region>
</group>